<svg width="128" height="128" viewBox="0 0 128 128" fill="none" xmlns="http://www.w3.org/2000/svg">
<circle cx="64" cy="64" r="64" fill="#584E4E"/>
<circle cx="64" cy="64" r="60" fill="#E96666"/>
<circle cx="64" cy="64" r="56" fill="#584E4E"/>
<circle cx="64" cy="64" r="52" fill="#E96666"/>
<path d="M78.7598 41.1613C78.7598 38.4514 76.893 36.1714 74.3865 35.52L80 19H52.1804L57.8069 35.5721C55.3788 36.2756 53.5903 38.5165 53.5903 41.1743C53.5903 43.1285 54.5694 44.8613 56.0576 45.9296C55.4701 46.7635 54.7913 47.5321 54.0211 48.2617C52.572 49.6167 50.9663 50.6589 49.23 51.3495C47.6634 50.2942 46.9846 48.4311 47.5981 46.7635C49.9872 46.0339 51.7234 43.806 51.7234 41.1873C51.7234 37.9693 49.0994 35.3636 45.888 35.3636C42.6634 35.3636 40.0394 37.9823 40.0394 41.2003C40.0394 42.7898 40.6922 44.249 41.7366 45.2913C41.6452 45.4737 41.5538 45.6561 41.4624 45.8515C40.5877 47.6494 39.5956 49.6818 39.217 51.9618C38.4598 56.5217 39.7 60.1827 42.6896 62.2542C44.3736 63.4137 46.2274 64 48.2248 64C51.6582 64 55.1438 62.2803 58.5119 60.6126C60.914 59.427 63.3944 58.1893 65.8356 57.59C66.7364 57.3686 67.6763 57.2383 68.6685 57.095C70.6789 56.8083 72.7546 56.5087 74.6214 55.4273C76.8016 54.1636 78.2898 52.053 78.7206 49.6297C79.047 47.7666 78.7206 45.8906 77.8851 44.249C78.4465 43.35 78.7598 42.2947 78.7598 41.1613V41.1613ZM76.2141 41.1613C76.2141 42.9722 74.7389 44.4444 72.9243 44.4444C71.1097 44.4444 69.6345 42.9722 69.6345 41.1613C69.6345 40.575 69.7912 40.0148 70.0653 39.5327C70.1698 39.3503 70.3003 39.1679 70.4309 39.0116C70.5614 38.8552 70.7181 38.7119 70.8878 38.5816L70.9008 38.5686C71.0053 38.4904 71.1228 38.4123 71.2403 38.3341C71.2403 38.3341 71.2533 38.3341 71.2533 38.3211C71.3055 38.295 71.3578 38.2559 71.41 38.2299C71.423 38.2299 71.4361 38.2168 71.4491 38.2168C71.5014 38.1908 71.5666 38.1647 71.6319 38.1387C71.6972 38.1126 71.7625 38.0866 71.8147 38.0605C71.8277 38.0605 71.8408 38.0475 71.8538 38.0475C71.9061 38.0345 71.9583 38.0084 72.0105 37.9954C72.0236 37.9954 72.0497 37.9823 72.0627 37.9823C72.128 37.9693 72.1802 37.9563 72.2455 37.9433H72.2585L72.4544 37.9042C72.4674 37.9042 72.4935 37.9042 72.5066 37.8911C72.5588 37.8911 72.611 37.8781 72.6632 37.8781H72.7285C72.7938 37.8781 72.8591 37.8651 72.9374 37.8651H73.1071C73.1593 37.8651 73.1985 37.8651 73.2507 37.8781H73.2768C73.3812 37.8911 73.4857 37.9042 73.5901 37.9302C75.0784 38.2429 76.2141 39.5718 76.2141 41.1613V41.1613ZM55.8226 21.6057H76.3577L71.645 35.4809C71.4491 35.52 71.2533 35.5851 71.0575 35.6503L66.0967 25.5533L61.1228 35.5851C60.927 35.52 60.7181 35.4809 60.5093 35.4418L55.8226 21.6057ZM65.1568 40.0278C64.9087 38.8031 64.2821 37.7087 63.3944 36.901L66.0967 31.4551L68.8251 37.0182C68.0157 37.826 67.4283 38.8552 67.1933 40.0278H65.1568ZM58.6163 37.9693C58.6816 37.9563 58.7338 37.9433 58.7991 37.9302H58.8383C58.8905 37.9172 58.9427 37.9172 58.9949 37.9042H59.0471C59.0994 37.9042 59.1385 37.8911 59.1907 37.8911H59.6999C59.7521 37.8911 59.7913 37.9042 59.8304 37.9042C59.8565 37.9042 59.8696 37.9042 59.8957 37.9172C59.9479 37.9302 59.9871 37.9302 60.0393 37.9433C60.0524 37.9433 60.0654 37.9433 60.0915 37.9563C60.1568 37.9693 60.2221 37.9823 60.2743 37.9954H60.2873C60.3396 38.0084 60.3918 38.0214 60.444 38.0475C60.4571 38.0475 60.4701 38.0605 60.4962 38.0605C60.5354 38.0735 60.5876 38.0866 60.6268 38.1126C60.6398 38.1126 60.6529 38.1257 60.6659 38.1257C60.7181 38.1517 60.7704 38.1647 60.8226 38.1908H60.8356C60.9009 38.2169 60.9531 38.2429 61.0054 38.282H61.0184C61.0706 38.308 61.1228 38.3471 61.1751 38.3732C61.1881 38.3732 61.1881 38.3862 61.2012 38.3862C61.2534 38.4123 61.2926 38.4514 61.3448 38.4774L61.3578 38.4904C61.5145 38.6077 61.6581 38.738 61.8017 38.8683L61.8147 38.8813C61.9453 39.0246 62.0758 39.1809 62.1803 39.3503C62.5197 39.8715 62.7155 40.4838 62.7155 41.1482C62.7155 42.9592 61.2403 44.4314 59.4257 44.4314C57.6111 44.4314 56.1359 42.9592 56.1359 41.1482C56.1229 39.6239 57.1803 38.3341 58.6163 37.9693V37.9693ZM45.7705 37.8781C47.5851 37.8781 49.0603 39.3503 49.0603 41.1613C49.0603 42.9722 47.5851 44.4444 45.7705 44.4444C43.9559 44.4444 42.4807 42.9722 42.4807 41.1613C42.4807 39.3503 43.9559 37.8781 45.7705 37.8781ZM76.1358 49.1737C75.8486 50.8413 74.8173 52.3005 73.3029 53.1734C71.8799 53.9942 70.1306 54.2548 68.2899 54.5153C67.2847 54.6587 66.2272 54.815 65.209 55.0625C62.4936 55.727 59.8826 57.0298 57.35 58.2805C54.1125 59.883 51.0576 61.3943 48.2248 61.3943C46.7496 61.3943 45.4311 60.9774 44.1778 60.1045C41.3058 58.1242 41.4494 54.4111 41.7888 52.3787C42.1021 50.4766 42.9768 48.6917 43.8123 46.9849C43.8645 46.8807 43.9036 46.7895 43.9559 46.6853C44.2431 46.7895 44.5433 46.8677 44.8566 46.9198C44.3606 49.6818 45.7705 52.535 48.512 53.9421L49.008 54.2027L49.5433 54.0072C51.8279 53.1995 53.9427 51.8836 55.8096 50.1248C56.867 49.1346 57.7678 48.0663 58.525 46.9068C58.8252 46.9589 59.1255 46.9719 59.4257 46.9719C62.1411 46.9719 64.4257 45.1089 65.0784 42.6074H67.2716C67.9244 45.1219 70.2089 46.9719 72.9243 46.9719C74.0079 46.9719 75.0131 46.6723 75.8747 46.1642C76.2141 47.1413 76.3186 48.1575 76.1358 49.1737V49.1737Z" fill="white"/>
<path d="M27.7715 73.1504C27.7715 71.6595 27.2409 70.7253 26.1797 70.3477C25.8151 70.2174 25.3887 70.1523 24.9004 70.1523C24.4121 70.1523 23.9922 70.2077 23.6406 70.3184C23.2891 70.429 22.9961 70.5788 22.7617 70.7676C22.2865 71.1517 22.0488 71.6595 22.0488 72.291C22.0488 73.248 22.752 74.0651 24.1582 74.7422L25.3789 75.3184C25.9714 75.5918 26.541 75.8717 27.0879 76.1582C27.6413 76.4382 28.1296 76.7604 28.5527 77.125C29.4837 77.9193 29.9492 78.9023 29.9492 80.0742C29.9492 81.3307 29.4023 82.3431 28.3086 83.1113C27.2865 83.8275 26.0039 84.1855 24.4609 84.1855C23.237 84.1855 22.1562 83.9935 21.2188 83.6094C20.5286 83.3359 20.0371 82.9486 19.7441 82.4473C19.5944 82.1934 19.5195 81.8841 19.5195 81.5195C19.5195 80.7904 19.7018 80.11 20.0664 79.4785C20.1901 79.3288 20.3594 79.2539 20.5742 79.2539C20.9909 79.2539 21.2318 79.3776 21.2969 79.625C21.3815 80.7513 21.7266 81.5716 22.332 82.0859C22.944 82.6003 23.7969 82.8574 24.8906 82.8574C26.1471 82.8574 26.9902 82.4473 27.4199 81.627C27.5697 81.3405 27.6445 81.0052 27.6445 80.6211C27.6445 80.2305 27.5404 79.8822 27.332 79.5762C27.1237 79.2702 26.847 78.987 26.502 78.7266C25.9746 78.3359 25.2747 77.9583 24.4023 77.5938C23.5365 77.2292 22.8594 76.9102 22.3711 76.6367C21.8893 76.3633 21.4629 76.0443 21.0918 75.6797C20.2845 74.8854 19.8809 73.9056 19.8809 72.7402C19.8809 71.5488 20.3919 70.5951 21.4141 69.8789C22.3971 69.1888 23.6667 68.8438 25.2227 68.8438C27.1953 68.8438 28.4844 69.2507 29.0898 70.0645C29.3112 70.3574 29.4219 70.7415 29.4219 71.2168C29.4219 71.6921 29.3763 72.1055 29.2852 72.457C29.2005 72.8086 29.1159 73.0365 29.0312 73.1406C28.888 73.3164 28.6406 73.4043 28.2891 73.4043C27.944 73.4043 27.7715 73.3197 27.7715 73.1504ZM37.5078 84.0488C37.3776 84.0163 37.1693 84 36.8828 84H33.7676C33.1426 84 32.7422 83.8893 32.5664 83.668C32.4948 83.5833 32.459 83.4857 32.459 83.375C32.459 83.1016 32.5111 82.8997 32.6152 82.7695C32.7715 82.8216 32.9473 82.8477 33.1426 82.8477C33.3444 82.8477 33.4941 82.7663 33.5918 82.6035C33.696 82.4408 33.7448 82.138 33.7383 81.6953V75.3086C33.7383 74.6966 33.6243 74.3158 33.3965 74.166C33.3053 74.1074 33.1849 74.0781 33.0352 74.0781C32.8854 74.0781 32.765 74.1009 32.6738 74.1465C32.5892 74.1921 32.5176 74.2246 32.459 74.2441C32.4069 74.2637 32.3613 74.2637 32.3223 74.2441C32.2832 74.2181 32.2441 74.1823 32.2051 74.1367C32.1074 74.0326 32.0586 73.9251 32.0586 73.8145C32.0586 73.6973 32.0977 73.5768 32.1758 73.4531C32.2604 73.3229 32.3939 73.1764 32.5762 73.0137C32.7585 72.8444 32.9668 72.6914 33.2012 72.5547C33.7285 72.2487 34.2559 72.0957 34.7832 72.0957C35.3887 72.0957 35.7467 72.4961 35.8574 73.2969C35.89 73.5312 35.9095 73.7721 35.916 74.0195C36.8861 73.2057 37.9408 72.6263 39.0801 72.2812C39.4902 72.1576 39.9036 72.0957 40.3203 72.0957C40.7435 72.0957 41.1439 72.151 41.5215 72.2617C41.9056 72.3724 42.2376 72.5514 42.5176 72.7988C43.11 73.3197 43.4062 74.1335 43.4062 75.2402V81.8613C43.4258 82.3691 43.6146 82.6816 43.9727 82.7988C44.0703 82.8314 44.1908 82.8607 44.334 82.8867C44.4772 82.9128 44.6042 82.9453 44.7148 82.9844C44.832 83.0169 44.9232 83.056 44.9883 83.1016C45.099 83.1862 45.1543 83.3229 45.1543 83.5117C45.1543 83.7396 45.1022 83.9186 44.998 84.0488C44.8678 84.0163 44.6595 84 44.373 84H41.2578C40.6328 84 40.2324 83.8893 40.0566 83.668C39.985 83.5833 39.9492 83.4857 39.9492 83.375C39.9492 83.1016 40.0013 82.8997 40.1055 82.7695C40.2617 82.8216 40.4049 82.8477 40.5352 82.8477C40.6719 82.8477 40.7858 82.8314 40.877 82.7988C40.9681 82.7598 41.0397 82.6979 41.0918 82.6133C41.1829 82.457 41.2285 82.151 41.2285 81.6953V75.9336C41.2285 74.8268 40.8997 74.2083 40.2422 74.0781C40.0404 74.0391 39.7865 74.0195 39.4805 74.0195C39.181 74.0195 38.849 74.0651 38.4844 74.1562C38.1198 74.2474 37.778 74.3646 37.459 74.5078C36.847 74.7812 36.3327 75.1263 35.916 75.543V81.8613C35.9355 82.3691 36.1211 82.6816 36.4727 82.7988C36.5768 82.8314 36.6973 82.8607 36.834 82.8867C36.9772 82.9128 37.1074 82.9453 37.2246 82.9844C37.3418 83.0169 37.4329 83.056 37.498 83.1016C37.6087 83.1862 37.6641 83.3229 37.6641 83.5117C37.6641 83.7396 37.612 83.9186 37.5078 84.0488ZM48.9043 70.2793C48.6829 70.2793 48.4779 70.2467 48.2891 70.1816C48.1068 70.11 47.9473 70.0091 47.8105 69.8789C47.5241 69.6055 47.3809 69.2376 47.3809 68.7754C47.3809 68.3327 47.5501 67.9583 47.8887 67.6523C48.2142 67.3464 48.6048 67.1934 49.0605 67.1934C49.5163 67.1934 49.8809 67.3301 50.1543 67.6035C50.4277 67.877 50.5645 68.248 50.5645 68.7168C50.5645 69.1595 50.4017 69.5339 50.0762 69.8398C49.7572 70.1328 49.3665 70.2793 48.9043 70.2793ZM48.3086 84C47.306 84 46.8047 83.7721 46.8047 83.3164C46.8047 83.082 46.8568 82.8997 46.9609 82.7695C47.1172 82.8216 47.2604 82.8477 47.3906 82.8477C47.9961 82.8477 48.2923 82.4635 48.2793 81.6953V75.1523C48.2793 74.6966 48.2142 74.3809 48.084 74.2051C47.9603 74.0228 47.7357 73.9316 47.4102 73.9316C47.1693 73.9316 46.9512 73.9609 46.7559 74.0195C46.6387 74.0326 46.554 73.9414 46.502 73.7461C46.4564 73.5703 46.4824 73.4173 46.5801 73.2871C46.6777 73.1504 46.8275 73.0104 47.0293 72.8672C47.2376 72.7174 47.4655 72.5872 47.7129 72.4766C48.2467 72.2227 48.6927 72.0957 49.0508 72.0957C49.4089 72.0957 49.6725 72.1478 49.8418 72.252C50.0176 72.3561 50.151 72.4961 50.2422 72.6719C50.3854 72.9583 50.457 73.4206 50.457 74.0586V81.8613C50.4766 82.3757 50.6621 82.6882 51.0137 82.7988C51.1113 82.8314 51.2318 82.8607 51.375 82.8867C51.5182 82.9128 51.6452 82.9453 51.7559 82.9844C51.873 83.0169 51.9642 83.056 52.0293 83.1016C52.14 83.1862 52.1953 83.3229 52.1953 83.5117C52.1953 83.7461 52.1465 83.9251 52.0488 84.0488C51.9121 84.0163 51.7038 84 51.4238 84H48.3086ZM58.6406 87.6523C58.7253 87.763 58.7676 87.903 58.7676 88.0723C58.7676 88.2415 58.6927 88.3848 58.543 88.502C58.3932 88.6257 58.2109 88.7266 57.9961 88.8047C57.5859 88.9479 57.1921 89.0195 56.8145 89.0195C56.4368 89.0195 56.1243 88.9935 55.877 88.9414C55.6296 88.8893 55.4245 88.7982 55.2617 88.668C54.9492 88.4076 54.793 87.9681 54.793 87.3496V75.3086C54.793 74.6966 54.679 74.3158 54.4512 74.166C54.36 74.1074 54.2396 74.0781 54.0898 74.0781C53.9401 74.0781 53.8197 74.1009 53.7285 74.1465C53.6439 74.1921 53.5723 74.2246 53.5137 74.2441C53.4616 74.2637 53.416 74.2637 53.377 74.2441C53.3379 74.2181 53.2988 74.1823 53.2598 74.1367C53.1621 74.0195 53.1133 73.9089 53.1133 73.8047C53.1133 73.694 53.1523 73.5768 53.2305 73.4531C53.3151 73.3229 53.4486 73.1764 53.6309 73.0137C53.8132 72.8444 54.0215 72.6914 54.2559 72.5547C54.7832 72.2487 55.3105 72.0957 55.8379 72.0957C56.4759 72.0957 56.8438 72.5742 56.9414 73.5312C57.9635 72.5742 59.0768 72.0957 60.2812 72.0957C61.6094 72.0957 62.6966 72.5547 63.543 73.4727C64.4609 74.4622 64.9199 75.8424 64.9199 77.6133C64.9199 78.9349 64.6204 80.1165 64.0215 81.1582C63.4746 82.1087 62.7227 82.8542 61.7656 83.3945C60.8477 83.9219 59.8711 84.1855 58.8359 84.1855C58.2565 84.1855 57.6348 84.0944 56.9707 83.9121V85.2695C56.9707 86.3242 57.0293 86.972 57.1465 87.2129C57.2702 87.4603 57.3939 87.6068 57.5176 87.6523C57.6478 87.6979 57.7943 87.7207 57.957 87.7207C58.1263 87.7207 58.3542 87.6979 58.6406 87.6523ZM56.9707 75.0547V81.832C57.5892 82.3594 58.3346 82.623 59.207 82.623C60.2227 82.623 61.0495 82.2487 61.6875 81.5C62.3646 80.6992 62.7031 79.6087 62.7031 78.2285C62.7031 76.7767 62.4036 75.6797 61.8047 74.9375C61.2708 74.2669 60.5286 73.9316 59.5781 73.9316C58.6276 73.9316 57.7585 74.306 56.9707 75.0547ZM72.0195 87.6523C72.1042 87.763 72.1465 87.903 72.1465 88.0723C72.1465 88.2415 72.0716 88.3848 71.9219 88.502C71.7721 88.6257 71.5898 88.7266 71.375 88.8047C70.9648 88.9479 70.571 89.0195 70.1934 89.0195C69.8158 89.0195 69.5033 88.9935 69.2559 88.9414C69.0085 88.8893 68.8034 88.7982 68.6406 88.668C68.3281 88.4076 68.1719 87.9681 68.1719 87.3496V75.3086C68.1719 74.6966 68.0579 74.3158 67.8301 74.166C67.7389 74.1074 67.6185 74.0781 67.4688 74.0781C67.319 74.0781 67.1986 74.1009 67.1074 74.1465C67.0228 74.1921 66.9512 74.2246 66.8926 74.2441C66.8405 74.2637 66.7949 74.2637 66.7559 74.2441C66.7168 74.2181 66.6777 74.1823 66.6387 74.1367C66.541 74.0195 66.4922 73.9089 66.4922 73.8047C66.4922 73.694 66.5312 73.5768 66.6094 73.4531C66.694 73.3229 66.8275 73.1764 67.0098 73.0137C67.1921 72.8444 67.4004 72.6914 67.6348 72.5547C68.1621 72.2487 68.6895 72.0957 69.2168 72.0957C69.8548 72.0957 70.2227 72.5742 70.3203 73.5312C71.3424 72.5742 72.4557 72.0957 73.6602 72.0957C74.9883 72.0957 76.0755 72.5547 76.9219 73.4727C77.8398 74.4622 78.2988 75.8424 78.2988 77.6133C78.2988 78.9349 77.9993 80.1165 77.4004 81.1582C76.8535 82.1087 76.1016 82.8542 75.1445 83.3945C74.2266 83.9219 73.25 84.1855 72.2148 84.1855C71.6354 84.1855 71.0137 84.0944 70.3496 83.9121V85.2695C70.3496 86.3242 70.4082 86.972 70.5254 87.2129C70.6491 87.4603 70.7728 87.6068 70.8965 87.6523C71.0267 87.6979 71.1732 87.7207 71.3359 87.7207C71.5052 87.7207 71.7331 87.6979 72.0195 87.6523ZM70.3496 75.0547V81.832C70.9681 82.3594 71.7135 82.623 72.5859 82.623C73.6016 82.623 74.4284 82.2487 75.0664 81.5C75.7435 80.6992 76.082 79.6087 76.082 78.2285C76.082 76.7767 75.7826 75.6797 75.1836 74.9375C74.6497 74.2669 73.9076 73.9316 72.957 73.9316C72.0065 73.9316 71.1374 74.306 70.3496 75.0547ZM80.3984 78.7461C80.3984 77.9583 80.4798 77.2585 80.6426 76.6465C80.8053 76.0345 81.0234 75.4876 81.2969 75.0059C81.5768 74.5176 81.9023 74.0911 82.2734 73.7266C82.651 73.362 83.0547 73.0592 83.4844 72.8184C84.3307 72.3366 85.1641 72.0957 85.9844 72.0957C86.8047 72.0957 87.4622 72.2422 87.957 72.5352C88.4518 72.8216 88.8555 73.2057 89.168 73.6875C89.7474 74.6055 90.0371 75.8262 90.0371 77.3496C90.0371 77.916 89.7995 78.2057 89.3242 78.2188L82.5078 78.3652C82.5469 79.778 82.9115 80.8229 83.6016 81.5C84.1875 82.0729 84.946 82.3594 85.877 82.3594C87.2637 82.3594 88.39 82.0697 89.2559 81.4902C89.3145 81.4902 89.3861 81.5391 89.4707 81.6367C89.6335 81.832 89.7148 82.0013 89.7148 82.1445C89.7148 82.457 89.3242 82.8574 88.543 83.3457C87.6445 83.9056 86.5964 84.1855 85.3984 84.1855C83.8359 84.1855 82.6087 83.6875 81.7168 82.6914C80.8379 81.7148 80.3984 80.3997 80.3984 78.7461ZM82.5664 77.1055C84.4414 77.0143 86.1569 76.8939 87.7129 76.7441C87.7845 74.6738 87.0684 73.6387 85.5645 73.6387C84.7246 73.6387 84.0378 73.9642 83.5039 74.6152C83.0156 75.2142 82.7031 76.0443 82.5664 77.1055ZM95.5742 77.3398L95.5645 79.9082C95.5645 80.9824 95.6198 81.6302 95.7305 81.8516C95.8411 82.0664 95.9714 82.1966 96.1211 82.2422C96.2708 82.2812 96.4629 82.3008 96.6973 82.3008C96.9316 82.3008 97.1432 82.2845 97.332 82.252C97.5273 82.2129 97.7096 82.1641 97.8789 82.1055C98.0482 82.0469 98.2109 81.9818 98.3672 81.9102L98.8457 81.7051C98.9564 81.666 99.0801 81.7799 99.2168 82.0469C99.2559 82.1185 99.2754 82.2031 99.2754 82.3008C99.2754 82.3919 99.2363 82.5124 99.1582 82.6621C99.0801 82.8118 98.9271 82.9844 98.6992 83.1797C98.4779 83.3685 98.2174 83.5378 97.918 83.6875C97.2669 84.0195 96.681 84.1855 96.1602 84.1855C95.6458 84.1855 95.2259 84.1562 94.9004 84.0977C94.5749 84.0391 94.2982 83.9219 94.0703 83.7461C93.6016 83.3815 93.3672 82.7142 93.3672 81.7441V74.0586H92.4004C92.1986 74.0586 92.0521 73.9935 91.9609 73.8633C91.8047 73.6615 91.7266 73.4922 91.7266 73.3555C91.7266 73.1276 91.7819 73.0007 91.8926 72.9746C92.9277 72.7988 93.6602 72.0306 94.0898 70.6699C94.2135 70.2598 94.3112 69.7747 94.3828 69.2148C94.6953 69.1628 94.9297 69.1367 95.0859 69.1367C95.2487 69.1367 95.3887 69.2181 95.5059 69.3809C95.623 69.5436 95.6784 69.7324 95.6719 69.9473C95.6719 70.1621 95.6686 70.3639 95.6621 70.5527C95.6556 70.7415 95.6491 70.9466 95.6426 71.168L95.6035 72.5352H98.9824C99.0671 72.6849 99.1094 72.8444 99.1094 73.0137V73.3164C99.1094 73.5898 98.9629 73.8145 98.6699 73.9902C98.377 74.1595 98.0514 74.2441 97.6934 74.2441C97.3418 74.2441 97.0879 74.2409 96.9316 74.2344C96.7819 74.2214 96.6354 74.2083 96.4922 74.1953L96.0625 74.1367C95.9128 74.1237 95.7533 74.1107 95.584 74.0977V74.2051L95.5742 77.3398ZM107.586 75.5625C107.586 74.5599 107.169 73.8958 106.336 73.5703C106.069 73.4661 105.779 73.4141 105.467 73.4141C105.161 73.4141 104.874 73.4401 104.607 73.4922C104.347 73.5443 104.116 73.6257 103.914 73.7363C103.458 73.9837 103.23 74.3385 103.23 74.8008C103.23 75.2435 103.419 75.6276 103.797 75.9531C104.214 76.2982 104.988 76.7246 106.121 77.2324C107.254 77.7337 108.126 78.2839 108.738 78.8828C109.357 79.4753 109.666 80.1589 109.666 80.9336C109.666 81.806 109.308 82.5417 108.592 83.1406C107.752 83.8372 106.59 84.1855 105.105 84.1855C103.289 84.1855 102.033 83.7982 101.336 83.0234C101.095 82.75 100.975 82.4017 100.975 81.9785C100.975 80.9564 101.225 80.3607 101.727 80.1914C101.85 80.1523 101.967 80.1328 102.078 80.1328C102.384 80.1328 102.55 80.2272 102.576 80.416C102.719 82.0436 103.631 82.8574 105.311 82.8574C106.32 82.8574 106.993 82.5742 107.332 82.0078C107.443 81.8255 107.498 81.6042 107.498 81.3438C107.498 81.0833 107.413 80.8457 107.244 80.6309C107.081 80.416 106.854 80.2174 106.561 80.0352C106.268 79.8464 105.919 79.6641 105.516 79.4883L104.217 78.9023C102.225 77.9909 101.229 76.7799 101.229 75.2695C101.229 74.293 101.661 73.5117 102.527 72.9258C103.348 72.3724 104.406 72.0957 105.701 72.0957C107.459 72.0957 108.553 72.4766 108.982 73.2383C109.093 73.4336 109.148 73.6484 109.148 73.8828C109.148 74.1172 109.135 74.3288 109.109 74.5176C109.083 74.6999 109.051 74.8659 109.012 75.0156C108.947 75.3021 108.872 75.5039 108.787 75.6211C108.618 75.7448 108.374 75.8066 108.055 75.8066C107.742 75.8066 107.586 75.7253 107.586 75.5625Z" fill="white"/>
</svg>
